<?xml version="1.0" encoding="UTF-8"?>
<svg xmlns="http://www.w3.org/2000/svg" id="FH_Kiel" data-name="FH Kiel" width="347.45" height="71.54372" viewBox="0 0 347.45 71.54372">
  <title>fachhochschule-kiel-logo</title>
  <g>
    <polygon points="14.309 42.926 0 42.926 0 57.235 14.309 57.235 28.617 42.926 28.617 28.617 14.309 42.926" style="fill: #00305d"></polygon>
    <polygon points="42.926 57.235 42.926 42.926 28.617 57.235 14.309 57.235 14.309 71.544 28.617 71.544 42.926 57.235" style="fill: #00305d"></polygon>
    <polygon points="28.617 0 14.309 14.309 0 14.309 0 28.617 14.309 28.617 28.617 14.309 28.617 0" style="fill: #00305d"></polygon>
    <polygon points="57.235 0 42.926 14.309 28.617 14.309 28.617 28.617 42.926 28.617 57.235 14.309 57.235 0" style="fill: #00305d"></polygon>
    <polygon points="71.544 28.617 71.544 14.309 57.235 28.617 42.926 28.617 42.926 42.926 57.235 42.926 71.544 28.617" style="fill: #00305d"></polygon>
    <polygon points="71.544 57.235 71.544 42.926 57.235 57.235 42.926 57.235 42.926 71.544 57.235 71.544 71.544 57.235" style="fill: #00305d"></polygon>
  </g>
  <path d="M89.72424,45.72045c0,.505,0,.67335-.505.67335H86.52582c-.505,0-.67336-.16834-.67336-.67335V27.53992c0-.505.16834-.67335.67336-.67335h9.2586c.505,0,.67336,0,.67336.33668v.33668l-.505,1.85172c-.16834.505-.33668.505-.67336.505H89.72425v4.71347h4.88181c.505,0,.67336,0,.67336.67335V37.1352c0,.505-.16834.67335-.67336.67335H89.72425Z" transform="translate(0 -12.55783)" style="fill: #00305d"></path>
  <path d="M104.87468,39.99695c-.67336,0-4.04012-.16834-4.04012,2.18839a1.76622,1.76622,0,0,0,1.85172,1.85172,3.33833,3.33833,0,0,0,2.18839-1.01Zm1.85172,6.56519c-.16834,0-.16834.16834-.33668.16834-.33668,0-.67336-1.01-.84169-1.68338a4.72949,4.72949,0,0,1-3.70344,1.68338,4.0232,4.0232,0,0,1-4.20845-4.37679c0-4.71347,5.21848-4.71347,7.40688-4.71347v-.84169c0-1.3467-.16834-2.02006-2.02006-2.02006a15.282,15.282,0,0,0-3.5351.84169c-.16834,0-.16834-.16834-.33668-.33668l-.505-1.68338c0-.16834-.16834-.16834-.16834-.33668,0-.67335,2.86175-1.3467,5.05015-1.3467,3.53511,0,4.8818,1.68338,4.8818,4.54513v5.38682c0,2.69341.67336,3.03009.67336,3.70344,0,.16834-.16834.16834-.33667.33668Z" transform="translate(0 -12.55783)" style="fill: #00305d"></path>
  <path d="M121.54015,45.04709c0,.16834.16834.16834.16834.33668,0,.67335-2.35674,1.515-4.04012,1.515-3.87178,0-6.22851-2.35673-6.22851-7.23854,0-4.71347,2.35674-7.74356,6.56519-7.74356,1.515,0,4.04012.84169,4.04012,1.68338a.52137.52137,0,0,1-.16834.33668l-1.01,1.85172-.16834.16834c-.33667,0-1.17836-1.17837-2.69341-1.17837-1.85172,0-2.69341,1.515-2.69341,4.71347,0,3.03009.67336,4.54513,2.86174,4.54513,1.515,0,2.02005-1.01,2.52507-1.01.16834,0,.16834,0,.16834.16834Z" transform="translate(0 -12.55783)" style="fill: #00305d"></path>
  <path d="M135.34389,45.88878c0,.33668,0,.33668-.33667.33668h-2.86176c-.33667,0-.33667,0-.33667-.33668V37.1352c0-1.01-.16834-2.35673-1.515-2.35673a3.44972,3.44972,0,0,0-2.35674,1.17837v9.932c0,.33668,0,.33668-.33667.33668h-2.86174c-.33667,0-.33667,0-.33667-.33668V26.86657c0-.505.16834-.505.505-.505l2.35674-.505.33667-.16834c.16834,0,.33667.16834.33667.67335v7.0702a5.56263,5.56263,0,0,1,3.87178-1.68338c3.03009,0,3.70343,2.02006,3.70343,4.54513v9.59528Z" transform="translate(0 -12.55783)" style="fill: #00305d"></path>
  <path d="M150.49433,45.88878c0,.33668,0,.33668-.33667.33668H147.2959c-.33667,0-.33667,0-.33667-.33668V37.1352c0-1.01-.16834-2.35673-1.515-2.35673a3.44972,3.44972,0,0,0-2.35674,1.17837v9.932c0,.33668,0,.33668-.33667.33668H139.889c-.33667,0-.33667,0-.33667-.33668V26.86657c0-.505.16834-.505.505-.505l2.35674-.505.33667-.16834c.16834,0,.33667.16834.33667.67335v7.0702a5.56263,5.56263,0,0,1,3.87178-1.68338c3.03009,0,3.70343,2.02006,3.70343,4.54513v9.59528Z" transform="translate(0 -12.55783)" style="fill: #00305d"></path>
  <path d="M161.60464,39.32359c0-2.69341-.33667-4.71347-2.35674-4.71347s-2.35674,2.02006-2.35674,4.71347.33667,4.71347,2.35674,4.71347c2.02007-.16834,2.35674-2.02006,2.35674-4.71347m-2.35674,7.40688c-3.87178,0-6.06017-2.86175-6.06017-7.40688s2.35674-7.40688,6.06017-7.40688,6.06017,2.86175,6.06017,7.40688c.16835,4.54513-2.18839,7.40688-6.06017,7.40688" transform="translate(0 -12.55783)" style="fill: #00305d"></path>
  <path d="M177.93344,45.04709v.33668c0,.67335-2.35674,1.515-4.04012,1.515-3.87178,0-6.22851-2.35673-6.22851-7.23854,0-4.71347,2.35674-7.74356,6.56519-7.74356,1.515,0,4.04012.84169,4.04012,1.68338v.33668l-1.01,1.85172-.16834.16834c-.33667,0-1.17836-1.17837-2.69341-1.17837-1.85172,0-2.69341,1.515-2.69341,4.71347,0,3.03009.67336,4.54513,2.86174,4.54513,1.515,0,2.02005-1.01,2.52507-1.01.16834,0,.16834,0,.16834.16834Z" transform="translate(0 -12.55783)" style="fill: #00305d"></path>
  <path d="M191.90551,45.88878c0,.33668,0,.33668-.33667.33668H188.7071c-.33667,0-.33667,0-.33667-.33668V37.1352c0-1.01-.16834-2.35673-1.515-2.35673a3.44972,3.44972,0,0,0-2.35674,1.17837v9.932c0,.33668,0,.33668-.33667.33668h-2.86174c-.33667,0-.33667,0-.33667-.33668V26.86657c0-.505.16834-.505.505-.505l2.35674-.505.33667-.16834c.16834,0,.33667.16834.33667.67335v7.0702a5.56263,5.56263,0,0,1,3.87178-1.68338c3.03009,0,3.70343,2.02006,3.70343,4.54513v9.59528Z" transform="translate(0 -12.55783)" style="fill: #00305d"></path>
  <path d="M203.35251,35.11514a.58774.58774,0,0,1-.16834.33668,10.163,10.163,0,0,0-3.19843-.67335c-1.01,0-1.85172.33668-1.85172,1.3467,0,1.515,2.52507,1.3467,4.54513,2.69341a3.68848,3.68848,0,0,1,1.85172,3.36676c0,2.52507-1.85172,4.54513-4.88181,4.54513-2.02005,0-5.38682-1.01-5.38682-1.85172a.58774.58774,0,0,1,.16834-.33668l.67336-1.68338a.58774.58774,0,0,1,.16834-.33668,13.07276,13.07276,0,0,0,4.04012,1.17837c1.01,0,1.68338-.33668,1.68338-1.3467,0-1.68338-2.69341-1.68338-4.71347-2.86175a3.55568,3.55568,0,0,1-1.68338-3.19842c0-2.52507,2.02005-4.54513,5.05015-4.54513,1.68338,0,4.37679.67335,4.37679,1.3467a.58774.58774,0,0,1-.16834.33668Z" transform="translate(0 -12.55783)" style="fill: #00305d"></path>
  <path d="M216.65122,45.04709c0,.16834.16835.16834.16835.33668,0,.67335-2.35674,1.515-4.04012,1.515-3.87178,0-6.22851-2.35673-6.22851-7.23854,0-4.71347,2.35674-7.74356,6.56519-7.74356,1.515,0,4.04011.84169,4.04011,1.68338a.52135.52135,0,0,1-.16835.33668l-1.01,1.85172-.16835.16834c-.33667,0-1.17836-1.17837-2.69341-1.17837-1.85172,0-2.69341,1.515-2.69341,4.71347,0,3.03009.67336,4.54513,2.86174,4.54513,1.515,0,2.02005-1.01,2.52507-1.01.16835,0,.16835,0,.16835.16834Z" transform="translate(0 -12.55783)" style="fill: #00305d"></path>
  <path d="M230.45494,45.88878c0,.33668,0,.33668-.33667.33668h-2.86174c-.33667,0-.33667,0-.33667-.33668V37.1352c0-1.01-.16835-2.35673-1.515-2.35673a3.44965,3.44965,0,0,0-2.35672,1.17837v9.932c0,.33668,0,.33668-.33667.33668h-3.03012c-.33667,0-.33667,0-.33667-.33668V26.86657c0-.505.16835-.505.505-.505l2.35672-.505.33667-.16834c.16835,0,.33667.16834.33667.67335v7.0702a5.56266,5.56266,0,0,1,3.87178-1.68338c3.03009,0,3.70343,2.02006,3.70343,4.54513Z" transform="translate(0 -12.55783)" style="fill: #00305d"></path>
  <path d="M243.24865,46.73047c-.16835,0-.33667.16834-.505.16834-.33667,0-.67334-.505-.84169-1.68338a6.26792,6.26792,0,0,1-4.3768,1.68338c-1.515,0-3.70343-.67335-3.70343-4.04012V33.09508a.44638.44638,0,0,1,.505-.505l2.35672-.505h.505c.16835,0,.16835.16834.16835.67335v8.92192c0,1.01.16835,2.35673,1.515,2.35673a5.38768,5.38768,0,0,0,2.52507-.84169v-9.932a.44638.44638,0,0,1,.505-.505l2.35672-.505h.505c.16835,0,.16835.16834.16835.67335v8.75358a11.47273,11.47273,0,0,0,.505,4.37679.36207.36207,0,0,1-.33667.33668Z" transform="translate(0 -12.55783)" style="fill: #00305d"></path>
  <path d="M255.20068,45.72045v.16834c0,.33668-1.515.84169-2.86174.84169-3.53511,0-3.53511-2.86175-3.53511-5.38682V26.86657c0-.505.16835-.505.505-.505l2.35672-.505a.58767.58767,0,0,0,.33667-.16834c.16835,0,.33667.16834.33667.67335V41.68033c0,.84169,0,1.68338.84169,1.68338A5.21861,5.21861,0,0,0,254.359,43.027c.16835,0,.16835,0,.16835.16834Z" transform="translate(0 -12.55783)" style="fill: #00305d"></path>
  <path d="M264.6276,37.64021c0-1.17837-.16835-3.19842-2.02005-3.19842-2.1884,0-2.35672,2.35673-2.35672,3.19842Zm3.36676,7.0702c0,.16834.16835.16834.16835.33668,0,.67335-2.86174,1.68338-5.05015,1.68338-3.70343,0-6.39686-2.18839-6.39686-7.23854,0-4.54513,2.35672-7.57522,6.22851-7.57522,4.8818,0,5.72349,4.20845,5.72349,7.74356,0,.505-.16835.67335-.67334.67335h-7.57522c0,1.515.505,3.5351,3.03009,3.5351a8.7886,8.7886,0,0,0,3.53511-1.01c.16835,0,.16835.16834.33667.16834Z" transform="translate(0 -12.55783)" style="fill: #00305d"></path>
  <path d="M279.60971,45.72045c0,.505-.16835.67335-.67334.67335h-2.69342c-.505,0-.67334-.16834-.67334-.67335V27.53992c0-.505.16835-.67335.67334-.67335h2.69342c.505,0,.67334,0,.67334.67335v7.91189h0l6.22851-8.58525c.16835-.16834.33667-.33668.505-.33668s.33667.16834.505.16834l1.85173,1.01.33667.33668c0,.33668-.16835.33668-.16835.505l-6.06018,7.91189,6.56518,8.24857c.16835.16834.16835.16834.16835.505,0,0-.16835.33668-.33667.33668l-2.1884,1.17837a.61843.61843,0,0,1-.505.16834c-.16835,0-.33667-.16834-.505-.33668l-6.56518-8.58525h0v7.74356Z" transform="translate(0 -12.55783)" style="fill: #00305d"></path>
  <path d="M294.42345,30.57a2.35673,2.35673,0,1,1,2.35672-2.35673A2.4075,2.4075,0,0,1,294.42345,30.57m1.85173,15.31877c0,.33668,0,.33668-.33667.33668h-2.86174c-.33667,0-.33667,0-.33667-.33668V34.9468h-2.1884c-.33667,0-.33667-.16834-.33667-.33668V32.7584c0-.33668,0-.33668.33667-.33668h5.38682c.33667,0,.33667,0,.33667.33668Z" transform="translate(0 -12.55783)" style="fill: #00305d"></path>
  <path d="M307.21716,37.64021c0-1.17837-.16835-3.19842-2.02005-3.19842-2.1884,0-2.35672,2.35673-2.35672,3.19842Zm3.19841,7.0702c0,.16834.16835.16834.16835.33668,0,.67335-2.86174,1.68338-5.05014,1.68338-3.70343,0-6.39686-2.18839-6.39686-7.23854,0-4.54513,2.35672-7.57522,6.22851-7.57522,4.8818,0,5.72349,4.20845,5.72349,7.74356,0,.505-.16835.67335-.67334.67335h-7.57522c0,1.515.505,3.5351,3.03009,3.5351a8.7886,8.7886,0,0,0,3.53511-1.01.58767.58767,0,0,1,.33667.16834Z" transform="translate(0 -12.55783)" style="fill: #00305d"></path>
  <path d="M320.17919,45.72045v.16834c0,.33668-1.515.84169-2.86174.84169-3.53511,0-3.53511-2.86175-3.53511-5.38682V26.86657c0-.505.16835-.505.505-.505l2.35672-.505a.58767.58767,0,0,0,.33667-.16834c.16835,0,.33667.16834.33667.67335V41.68033c0,.84169,0,1.68338.84169,1.68338a5.2186,5.2186,0,0,0,1.17836-.33668c.16835,0,.16835,0,.16835.16834Z" transform="translate(0 -12.55783)" style="fill: #00305d"></path>
  <path d="M340.88479,69.62447h0c0,.16834,0,.16834.16835.16834h.84169c.16835,0,.16835,0,.16835-.16834l.67334-3.36676c.16835-1.01,1.17836-3.19843,2.86174-3.19843.505,0,.67334.16834.67334.67336a1.01207,1.01207,0,0,1-.16835.67336l-1.17836,5.21848v.16834a.16487.16487,0,0,0,.16835.16834h.84169c.16835,0,.16835,0,.16835-.16834l1.17836-5.21848c0-.33668.16835-.67336.16835-1.17837a1.37491,1.37491,0,0,0-1.515-1.3467,3.39235,3.39235,0,0,0-2.86174,1.68338h0v-.67336c0-.505-.16835-1.01-.33667-1.01h-.16837l-.505.16834a.16487.16487,0,0,0-.16835.16834c0,.33668.16835.67336.16835,1.01a1.83025,1.83025,0,0,1-.16835.84169Zm-5.55516-3.87178c.16835-.84169.67334-2.86175,2.52507-2.86175.84169,0,1.17836.505,1.17836,1.01-.16832,1.85172-2.86174,1.85172-3.70343,1.85172m3.70343,2.52507h0c-.33667-.16834-1.01.67336-2.35672.67336-1.01,0-1.515-.67336-1.515-1.68338v-.33668c1.34671,0,4.8818,0,4.8818-2.69341a1.85745,1.85745,0,0,0-2.02005-2.02006c-2.35672,0-4.04011,2.52507-4.04011,5.21848,0,1.68338.84169,2.86175,2.52507,2.86175a4.06948,4.06948,0,0,0,2.86174-1.17837h0Zm-6.39683.505h0c-.33667-.16834-.84169.33668-1.515.33668-.505,0-.67334-.16834-.67334-.67336v-.84169l1.01-4.37679h2.02005c.16835,0,.16835,0,.16835-.16834l.33667-.505v-.16834a.16487.16487,0,0,0-.16835-.16834h-2.1884l.505-2.35674v-.16834a.16487.16487,0,0,0-.16835-.16834h-.16835l-.84169.16834c-.16835,0-.16835,0-.16835.16834l-.505,2.18839h-1.17836c-.16835,0-.16835,0-.16835.16834v.505a.16487.16487,0,0,0,.16835.16834h1.17836l-1.01,4.37679c0,.33668-.16835.67336-.16835,1.01,0,1.01.505,1.515,1.34671,1.515,1.01,0,2.1884-.33668,2.1884-.67336l0-.33667Zm-4.04013-5.55516c.16835,0,.16835,0,.16835-.16834l.16835-.33668v-.16834a.16487.16487,0,0,0-.16835-.16834H326.576l.33667-1.3467c.16835-.505.16835-1.515,1.34671-1.515a3.48251,3.48251,0,0,1,1.34671.33668h.16835l.33667-.67336h0c0-.16834-.84169-.505-1.68338-.505a2.426,2.426,0,0,0-2.52507,2.35674l-.33667,1.515h-1.17836c-.16835,0-.16835,0-.16835.16834v.505a.16487.16487,0,0,0,.16835.16834H325.566l-1.34671,7.0702c-.16835.505-.33667,1.85172-1.68338,1.85172a5.95287,5.95287,0,0,1-1.01-.16834.16487.16487,0,0,0-.16835.16834l-.16835.67336v.16834c0,.16834.67334.33668,1.17836.33668,2.35672,0,2.69342-1.85172,2.86174-2.86175l1.34671-7.0702h2.02005v-.33668Zm-5.89184-.67335h0c0-.16834,0-.33668-.16835-.33668h-.67334a.16487.16487,0,0,0-.16835.16834l-.16835.505a2.017,2.017,0,0,0-1.68338-.84169c-2.52507,0-3.70343,3.70344-3.70343,5.7235,0,1.3467.67334,2.35674,1.85173,2.35674a3.16424,3.16424,0,0,0,2.52507-1.68338h0v.67336c0,.505.16835,1.01.33667,1.01h.16835l.505-.16834a.16487.16487,0,0,0,.16835-.16834c0-.33668-.16835-.67336-.16835-1.01s.16835-1.01.16835-1.17837Zm-1.8517,3.36676c-.33667,1.17837-1.17836,3.03009-2.52507,3.03009-.67334,0-1.01-.505-1.01-1.3467,0-1.3467.84169-4.54513,2.52507-4.54513a1.39281,1.39281,0,0,1,1.34671.67336Zm-12.79371,3.70344h0c0,.16834,0,.16834.16835.16834h.84169c.16835,0,.16835,0,.16835-.16834l.67334-3.36676c.16835-1.01,1.17836-3.19843,2.86174-3.19843.505,0,.67334.16834.67334.67336a1.01206,1.01206,0,0,1-.16835.67336L312.099,69.62447v.16834a.16487.16487,0,0,0,.16835.16834h.84169c.16835,0,.16835,0,.16835-.16834l1.17836-5.21848c0-.33668.16835-.67336.16835-1.17837a1.37491,1.37491,0,0,0-1.515-1.3467,3.39235,3.39235,0,0,0-2.86174,1.68338h0a4.2819,4.2819,0,0,0,.33667-1.17837l.84169-4.04012a.16487.16487,0,0,0-.16835-.16834h-.16835l-.84169.16834a.16487.16487,0,0,0-.16835.16834Zm-1.515-1.34671h0c-.33667,0-.84169.505-1.85173.505s-1.34671-.67336-1.34671-1.515c0-1.85172.84169-4.37679,2.69342-4.37679.505,0,.67334.16834,1.01.16834.16835,0,.33667.16834.505.16834a.16487.16487,0,0,0,.16835-.16834l.33667-.505a.58771.58771,0,0,0,.16835-.33668,2.94354,2.94354,0,0,0-2.02005-.67336c-2.69342,0-4.04011,2.69341-4.04011,5.38682,0,1.68338.67334,2.69341,2.1884,2.69341a4.08838,4.08838,0,0,0,2.69342-1.01v-.16834ZM301.157,62.7226h0c0-.33668-.84169-.84169-1.85173-.84169a2.4864,2.4864,0,0,0-2.69342,2.35674c0,2.02006,2.52507,1.85172,2.52507,3.36676a1.32774,1.32774,0,0,1-1.34671,1.3467,5.22352,5.22352,0,0,1-2.02005-.505.16487.16487,0,0,0-.16835.16834l-.33667.505v.16834a3.34833,3.34833,0,0,0,2.35672.67336,2.57611,2.57611,0,0,0,2.86174-2.52507,2.50707,2.50707,0,0,0-.67334-1.515c-.67334-.67336-1.85173-1.01-1.85173-1.85172a1.20069,1.20069,0,0,1,1.34671-1.17837,3.48251,3.48251,0,0,1,1.34671.33668c.16835,0,.16835,0,.16835-.16834Zm-12.62536,6.90187h0c0,.16834,0,.16834.16835.16834h.84169c.16835,0,.16835,0,.16835-.16834l.67334-3.36676c.16835-1.01,1.17836-3.19843,2.86174-3.19843.505,0,.67334.16834.67334.67336a1.01206,1.01206,0,0,1-.16835.67336l-1.17836,5.21848v.16834a.16487.16487,0,0,0,.16835.16834h.84169c.16835,0,.16835,0,.16835-.16834l1.17836-5.21848c0-.33668.16835-.67336.16835-1.17837a1.37491,1.37491,0,0,0-1.515-1.3467A3.39235,3.39235,0,0,0,290.72,63.73263h0v-.67336c0-.505-.16835-1.01-.33667-1.01H290.215l-.505.16834a.16487.16487,0,0,0-.16835.16834c0,.33668.16835.67336.16835,1.01a1.83025,1.83025,0,0,1-.16835.84169Zm-5.72349-3.87178c.16835-.84169.67334-2.86175,2.52507-2.86175.84169,0,1.17836.505,1.17836,1.01,0,1.85172-2.86174,1.85172-3.70343,1.85172m3.70343,2.52507h0c-.33667-.16834-1.01.67336-2.35672.67336-1.01,0-1.515-.67336-1.515-1.68338v-.33668c1.34671,0,4.8818,0,4.8818-2.69341a1.85745,1.85745,0,0,0-2.02005-2.02006c-2.35672,0-4.04011,2.52507-4.04011,5.21848,0,1.68338.84169,2.86175,2.52507,2.86175a4.06948,4.06948,0,0,0,2.86174-1.17837h0Zm-5.89184-5.55516h0c0-.33668-.84169-.84169-1.85173-.84169a2.4864,2.4864,0,0,0-2.69342,2.35674c0,2.02006,2.52507,1.85172,2.52507,3.36676a1.32774,1.32774,0,0,1-1.34671,1.3467,5.22352,5.22352,0,0,1-2.02005-.505.16487.16487,0,0,0-.16835.16834l-.33667.505v.16834a3.34833,3.34833,0,0,0,2.35672.67336,2.57611,2.57611,0,0,0,2.86174-2.52507,2.50707,2.50707,0,0,0-.67334-1.515c-.67334-.67336-1.85173-1.01-1.85173-1.85172a1.20069,1.20069,0,0,1,1.34671-1.17837,3.48251,3.48251,0,0,1,1.34671.33668c.16835,0,.16835,0,.16835-.16834Zm-5.89184,0h0c0-.33668-.84169-.84169-1.85173-.84169a2.4864,2.4864,0,0,0-2.69342,2.35674c0,2.02006,2.52507,1.85172,2.52507,3.36676a1.32774,1.32774,0,0,1-1.34671,1.3467,5.22352,5.22352,0,0,1-2.02005-.505.16487.16487,0,0,0-.16835.16834l-.33667.505v.16834a3.34833,3.34833,0,0,0,2.35672.67336,2.57611,2.57611,0,0,0,2.86174-2.52507,2.50707,2.50707,0,0,0-.67334-1.515c-.67334-.67336-1.85173-1.01-1.85173-1.85172a1.20069,1.20069,0,0,1,1.34671-1.17837,3.48251,3.48251,0,0,1,1.34671.33668c.16835,0,.16835,0,.16835-.16834Zm-5.21847-3.36676a.84169.84169,0,1,0-.84169.84169.7952.7952,0,0,0,.84169-.84169m-1.01,3.36676v-.33668c0-.16834,0-.16834-.33667-.16834h-2.02005c-.16835,0-.16835,0-.16835.16834l-.16835.505v.16834a.16487.16487,0,0,0,.16835.16834h1.17836L265.806,69.62445v.16834h1.01c.16835,0,.16835-.16834.16835-.33668Zm-6.73353-3.5351c0-.16834,0-.16834-.16835-.16834h-.67334c-.16835,0-.16835,0-.16835.16834l-3.19841,7.9119c-.16835.33668-.33667,1.17837-.505,1.68338h0c0-.33668.16835-1.3467.16835-1.68338l.33667-7.9119c0-.16834,0-.16834-.16835-.16834h-.16835l-.84169.16834h-.16835v.16834l-.16835,10.437c0,.16834,0,.16834.16835.16834h1.01c.16835,0,.16835,0,.33667-.33668l3.36676-8.41691h0l-.505,8.41691c0,.16834,0,.16834.16835.16834h.84169c.16835,0,.16835,0,.33667-.16834l4.3768-10.437v-.16834l-.16835-.16834-.67334-.16834h-.16832a.16487.16487,0,0,0-.16835.16834l-3.19842,8.08023a15.89043,15.89043,0,0,1-.505,1.515h0c0-.33668.16835-1.17837.16835-1.515ZM246.1104,65.75268c.16835-.84169.67334-2.86175,2.52507-2.86175.84169,0,1.17836.505,1.17836,1.01-.16832,1.85172-2.86174,1.85172-3.70343,1.85172m3.70343,2.52507h0c-.33667-.16834-1.01.67336-2.35672.67336-1.01,0-1.515-.67336-1.515-1.68338v-.33668c1.34671,0,4.8818,0,4.8818-2.69341a1.85745,1.85745,0,0,0-2.02005-2.02006c-2.35672,0-4.04011,2.52507-4.04011,5.21848,0,1.68338.84169,2.86175,2.52507,2.86175a4.06948,4.06948,0,0,0,2.86174-1.17837h0Zm-6.39683.505h0c-.33667-.16834-.84169.33668-1.515.33668-.505,0-.67334-.16834-.67334-.67336v-.84169l1.01-4.37679h2.02005c.16835,0,.16835,0,.16835-.16834l.33667-.505v-.16834a.16487.16487,0,0,0-.16835-.16834H242.407l.505-2.35674v-.16834a.16487.16487,0,0,0-.16835-.16834h-.16835l-.84169.16834c-.16835,0-.16835,0-.16835.16834l-.505,2.18839h-1.17836c-.16835,0-.16835,0-.16835.16834v.505a.16487.16487,0,0,0,.16835.16834h1.17836l-1.01,4.37679c0,.33668-.16835.67336-.16835,1.01,0,1.01.505,1.515,1.34671,1.515,1.01,0,2.1884-.33668,2.1884-.67336l0-.33667Zm-5.89184-6.22851a3.30632,3.30632,0,0,0-1.68338-.505c-2.52507,0-3.70343,3.03009-3.70343,5.7235,0,1.515.67334,2.35674,1.85173,2.35674a3.45646,3.45646,0,0,0,2.52507-1.68338h0v.505c0,.505.16835,1.01.33667,1.01h.16835l.505-.16834a.16487.16487,0,0,0,.16835-.16834,5.9521,5.9521,0,0,1-.16835-1.01,2.86459,2.86459,0,0,1,.16835-1.17837l1.85173-8.92192a.16487.16487,0,0,0-.16835-.16834h-.16835l-.84169.16834a.16487.16487,0,0,0-.16835.16834Zm-.84169,3.5351c-.33667,1.515-1.17836,2.86175-2.52507,2.86175-.67334,0-.84169-.505-.84169-1.3467,0-1.68338.67334-4.54513,2.52507-4.54513a1.657,1.657,0,0,1,1.34671.505Zm-12.28869,3.53511h0c0,.16834,0,.16834.16835.16834h.84169c.16835,0,.16835,0,.16835-.16834l.67334-3.36676c.16835-1.01,1.17836-3.19843,2.86174-3.19843.505,0,.67334.16834.67334.67336a1.01206,1.01206,0,0,1-.16835.67336l-1.17836,5.21848v.16834a.16487.16487,0,0,0,.16835.16834h.84169c.16835,0,.16835,0,.16835-.16834l1.17836-5.21848c0-.33668.16835-.67336.16835-1.17837a1.37491,1.37491,0,0,0-1.515-1.3467,3.39235,3.39235,0,0,0-2.86174,1.68338h0v-.67336c0-.505-.16835-1.01-.33667-1.01h-.16835l-.505.16834a.16487.16487,0,0,0-.16835.16834c0,.33668.16835.67336.16835,1.01a1.83025,1.83025,0,0,1-.16835.84169Zm-.84169-7.0702h0c0-.16834,0-.33668-.16835-.33668h-.67334a.16487.16487,0,0,0-.16835.16834l-.16835.505a2.017,2.017,0,0,0-1.68338-.84169c-2.52507,0-3.70343,3.70344-3.70343,5.7235,0,1.3467.67334,2.35674,1.85173,2.35674a3.16424,3.16424,0,0,0,2.52507-1.68338h0v.67336c0,.505.16835,1.01.33667,1.01h.16835l.505-.16834a.16487.16487,0,0,0,.16835-.16834c0-.33668-.16835-.67336-.16835-1.01s.16835-1.01.16835-1.17837ZM221.70136,65.921c-.33667,1.17837-1.17836,3.03009-2.52507,3.03009-.67334,0-1.01-.505-1.01-1.3467,0-1.3467.84169-4.54513,2.52507-4.54513a1.39281,1.39281,0,0,1,1.34671.67336Zm-8.92192-3.53511h0l-.67336-.16834c-.16834,0-.16834,0-.16834.16834l-2.52507,5.21848c-.16834.33668-.33667.505-.33667.84169h0V62.38592c0-.16834,0-.16834-.16834-.16834h-.16834l-.84169.16834a.16487.16487,0,0,0-.16834.16834v.16834l.16834,7.23854c0,.16834,0,.16834.16834.16834h.67336c.16834,0,.16834,0,.16834-.16834l2.52507-4.71347a2.39266,2.39266,0,0,0,.33667-1.01h0v1.01l.16834,4.71347c0,.16834,0,.16834.16834.16834h.67336c.16834,0,.16834,0,.16834-.16834l3.53511-7.23854v-.16834l-.16835-.16834-.84169-.16834h-.16835l-.16835.16834-2.1884,5.21848a2.39266,2.39266,0,0,0-.33667,1.01h0Zm-11.27866,3.36676c.16834-.84169.67336-2.86175,2.52507-2.86175.84169,0,1.17836.505,1.17836,1.01,0,1.85172-2.86174,1.85172-3.70343,1.85172m3.70345,2.52507h0c-.33667-.16834-1.01.67336-2.35674.67336-1.01,0-1.515-.67336-1.515-1.68338v-.33668c1.34671,0,4.88181,0,4.88181-2.69341a1.85745,1.85745,0,0,0-2.02005-2.02006c-2.35674,0-4.04012,2.52507-4.04012,5.21848,0,1.68338.84169,2.86175,2.52507,2.86175a4.06945,4.06945,0,0,0,2.86174-1.17837h0ZM197.79735,65.921c-.33667,1.17837-1.17836,2.86175-2.52507,2.86175-.505,0-.84169-.505-.84169-1.3467A7.70467,7.70467,0,0,1,195.7773,63.396c.16834-.16834.33667-.33668,1.01-.33668a3.6809,3.6809,0,0,1,1.515.505Zm1.34671-1.3467a2.73723,2.73723,0,0,1,.67336-1.515l.33667-.33668v-.16834l-.505-.33668h-.16834c-.16834,0-.505.505-.67336.67336a2.69192,2.69192,0,0,0-1.85172-.67336c-2.69341,0-3.70343,3.5351-3.70343,5.55516,0,1.3467.67336,2.35674,1.85172,2.35674s1.85172-1.01,2.35674-1.68338h0c-.33667,1.3467-.33667,3.87178-2.1884,3.87178a8.17837,8.17837,0,0,1-2.35674-.67336.16487.16487,0,0,0-.16834.16834l-.33667.67336v.16834a4.87268,4.87268,0,0,0,2.69341.84169,2.90011,2.90011,0,0,0,3.03009-2.18839c.16834-1.01.505-2.69341.84169-4.04012Zm-13.6354,5.05015h0l1.01.16834c.16834,0,.16834,0,.16834-.16834l.67336-3.36676c.16834-1.01,1.17836-3.19843,2.86174-3.19843.505,0,.67336.16834.67336.67336a1.01212,1.01212,0,0,1-.16834.67336l-1.17836,5.21848v.16834a.16487.16487,0,0,0,.16834.16834h.84169c.16834,0,.16834,0,.16834-.16834l1.17836-5.21848c0-.33668.16834-.67336.16834-1.17837a1.37492,1.37492,0,0,0-1.515-1.3467,3.39233,3.39233,0,0,0-2.86174,1.68338h0v-.67336c0-.505-.16834-1.01-.33667-1.01H187.192l-.505.16834a.16487.16487,0,0,0-.16834.16834c0,.33668.16834.67336.16834,1.01a1.83037,1.83037,0,0,1-.16834.84169Zm-9.2586-.16834h0c0,.33668,0,.33668.16834.33668h.84169c.16834,0,.16834,0,.16834-.16834l1.515-3.03009h3.36676l.16834,3.03009c0,.16834,0,.16834.16834.16834h1.17836v-.16834l-1.01-10.437c0-.16834,0-.16834-.16834-.16834h-.84169c-.16834,0-.16834,0-.33667.16834Zm5.89184-3.87178h-2.69341l1.85172-3.5351c.16834-.33668.505-1.17837.67336-1.515h0v1.515Zm-12.962,3.87178h0c0,.16834,0,.33668.16834.33668h.84169c.16834,0,.16834,0,.16834-.16834l.67336-3.36676a5.18492,5.18492,0,0,1,.84169-2.02006,2.06125,2.06125,0,0,1,1.515-1.01c.33667,0,.33667.16834.505.16834l.16834-.16834.33667-.67336v-.16834c0-.16834-.33667-.16834-.67336-.16834a2.96518,2.96518,0,0,0-2.1884,1.515h0v-.505c0-.67336-.16834-1.17837-.33667-1.17837h-.16834l-.67336.33668-.16834.16834a5.97314,5.97314,0,0,1,.16834,1.17837,2.86479,2.86479,0,0,1-.16834,1.17837Zm-1.17836-9.59528a.84169.84169,0,1,0-.84169.84169.7952.7952,0,0,0,.84169-.84169m-2.86176,0a.84169.84169,0,1,0-.84169.84169.7952.7952,0,0,0,.84169-.84169m3.03009,2.35674h-1.01c-.16834,0-.16834.16834-.16834.33668l-.67336,3.36676a5.88184,5.88184,0,0,1-.84169,2.18839,2.83457,2.83457,0,0,1-1.85172,1.01.7952.7952,0,0,1-.84169-.84169c0-.33668.16834-.67336.16834-1.01l1.01-5.05015a.16487.16487,0,0,0-.16834-.16834h-.16834l-.8417.16834c-.16834,0-.16834.16834-.16834.33668l-1.01,5.05015a7.29074,7.29074,0,0,1-.16834.84169,1.55015,1.55015,0,0,0,1.515,1.68338,3.345,3.345,0,0,0,2.69341-1.515h0v.67336c0,.33668.16834.67336.33667.67336h.16834l.505-.16834a.16487.16487,0,0,0,.16834-.16834,2.13513,2.13513,0,0,1-.16834-1.01,1.83037,1.83037,0,0,1,.16834-.84169Zm-6.90186,1.01h0l.33667-.505v-.16834a.16487.16487,0,0,0-.16834-.16834h-2.1884l.33667-1.3467c.16834-.505.16834-1.515,1.34671-1.515a3.48242,3.48242,0,0,1,1.34671.33668h.16834l.33667-.67336h0c0-.16834-.84169-.505-1.68338-.505a2.426,2.426,0,0,0-2.52507,2.35674l-.33667,1.515h-1.17836c-.16834,0-.16834,0-.16834.16834v.505a.16487.16487,0,0,0,.16834.16834h1.17836l-1.34671,7.0702c-.16834.505-.33667,1.85172-1.68338,1.85172a5.95238,5.95238,0,0,1-1.01-.16834.16487.16487,0,0,0-.16834.16834l-.16834.67336v.16834c0,.16834.67336.33668,1.17836.33668,2.35674,0,2.69341-1.85172,2.86174-2.86175l1.34671-7.0702H161.268Zm-13.6354,2.52507c.16834-.84169.67336-2.86175,2.52507-2.86175.84169,0,1.17836.505,1.17836,1.01-.16832,1.85172-2.86174,1.85172-3.70343,1.85172m3.70345,2.52507h0c-.33668-.16834-1.01.67336-2.35674.67336-1.01,0-1.515-.67336-1.515-1.68338v-.33668c1.34671,0,4.88181,0,4.88181-2.69341a1.85745,1.85745,0,0,0-2.02005-2.02006c-2.35674,0-4.04012,2.52507-4.04012,5.21848,0,1.68338.84169,2.86175,2.52507,2.86175a4.06945,4.06945,0,0,0,2.86174-1.17837h0Zm-6.22852.67336h0c-.16834-.16834-.505.16834-.84169.16834a.44638.44638,0,0,1-.505-.505c0-.33668.16834-1.17837.16834-1.68338l1.85172-8.41691a.16487.16487,0,0,0-.16834-.16834h-.16834l-.84169.16834a.16487.16487,0,0,0-.16834.16834l-1.68338,8.08023c0,.33668-.33667,1.3467-.33667,1.85172,0,.84169.505,1.17837,1.34671,1.17837.67336,0,1.34671-.33668,1.34671-.505v-.33667Zm-3.70343-6.73353h0c-.16834-.16834-.16834-.16834-.33667-.16834l-.84169.16834c-.16834,0-.16834.16834-.16834.33668L139.384,65.921a5.88184,5.88184,0,0,1-.84169,2.18839,2.83457,2.83457,0,0,1-1.85172,1.01.7952.7952,0,0,1-.84169-.84169c0-.33668.16834-.67336.16834-1.01l1.01-5.05015a.16487.16487,0,0,0-.16834-.16834h-.16834l-.67336.16834c-.16834,0-.16834.16834-.16834.33668l-1.01,5.05015a7.29074,7.29074,0,0,1-.16834.84169,1.55015,1.55015,0,0,0,1.515,1.68338,3.345,3.345,0,0,0,2.69341-1.515h0v.67336c0,.33668.16834.67336.33667.67336h.16834l.505-.16834a.16487.16487,0,0,0,.16834-.16834,2.13513,2.13513,0,0,1-.16834-1.01,1.83037,1.83037,0,0,1,.16834-.84169Zm-14.64542,7.40688h0l1.01.16834c.16834,0,.16834,0,.16834-.16834l.67336-3.36676c.16834-1.01,1.17836-3.19843,2.86174-3.19843.505,0,.67336.16834.67336.67336a1.01212,1.01212,0,0,1-.16834.67336l-1.17836,5.21848v.16834a.16487.16487,0,0,0,.16834.16834h.84169c.16834,0,.16834,0,.16834-.16834l1.17836-5.21848c0-.33668.16834-.67336.16834-1.17837a1.37492,1.37492,0,0,0-1.515-1.3467,3.39233,3.39233,0,0,0-2.86174,1.68338h0a4.28236,4.28236,0,0,0,.33667-1.17837l.84169-4.04012a.16487.16487,0,0,0-.16834-.16834h-.16834l-.84169.16834a.16487.16487,0,0,0-.16834.16834Zm-1.515-1.34671h0c-.33667,0-.84169.505-1.85172.505s-1.34671-.67335-1.34671-1.515c0-1.85172.84169-4.37679,2.69341-4.37679.505,0,.67336.16834,1.01.16834.16834,0,.33667.16834.505.16834a.16487.16487,0,0,0,.16834-.16834l.33667-.505a.58772.58772,0,0,0,.16834-.33668,2.94351,2.94351,0,0,0-2.02005-.67336c-2.69341,0-4.04012,2.69341-4.04012,5.38682,0,1.68338.67336,2.69341,2.1884,2.69341a4.08833,4.08833,0,0,0,2.69341-1.01V68.4461Zm-5.38683-5.55516h0c0-.33668-.84169-.84169-1.85172-.84169a2.48638,2.48638,0,0,0-2.69341,2.35674c0,2.02006,2.52507,1.85172,2.52507,3.36676a1.32775,1.32775,0,0,1-1.34671,1.3467,5.2236,5.2236,0,0,1-2.02005-.505.16487.16487,0,0,0-.16834.16834l-.33667.505v.16834a3.34832,3.34832,0,0,0,2.35674.67336,2.57611,2.57611,0,0,0,2.86174-2.52507,1.82776,1.82776,0,0,0-.67336-1.515c-.67336-.67336-1.85172-1.01-1.85172-1.85172a1.20069,1.20069,0,0,1,1.34671-1.17837,3.48251,3.48251,0,0,1,1.34671.33668c.16834,0,.16834,0,.16834-.16834Zm-12.62536,6.90187h0l1.01.16834c.16834,0,.16834,0,.16834-.16834l.67336-3.36676c.16834-1.01,1.17836-3.19843,2.86174-3.19843.505,0,.67336.16834.67336.67336a1.01212,1.01212,0,0,1-.16834.67336l-1.17836,5.21848v.16834a.16487.16487,0,0,0,.16834.16834h.84169c.16834,0,.16834,0,.16834-.16834l1.17836-5.21848c0-.33668.16834-.67336.16834-1.17837a1.37492,1.37492,0,0,0-1.515-1.3467,3.39233,3.39233,0,0,0-2.86174,1.68338h0a4.28236,4.28236,0,0,0,.33667-1.17837l.84169-4.04012a.16487.16487,0,0,0-.16834-.16834h-.16832l-.84169.16834a.16487.16487,0,0,0-.16834.16834ZM105.548,68.27776h0c-.33668,0-.84169.505-1.85172.505s-1.3467-.67336-1.3467-1.515c0-1.85172.84169-4.37679,2.69341-4.37679.505,0,.67336.16834,1.01.16834.16834,0,.33668.16834.505.16834a.16487.16487,0,0,0,.16834-.16834l.33668-.505a.58772.58772,0,0,0,.16834-.33668,2.94352,2.94352,0,0,0-2.02006-.67336c-2.69341,0-4.04012,2.69341-4.04012,5.38682,0,1.68338.67336,2.69341,2.18839,2.69341a4.08835,4.08835,0,0,0,2.69341-1.01v-.16834Zm-6.90187-3.5351c0,1.68338-.84169,4.37679-2.69341,4.37679-1.01,0-1.3467-.67336-1.3467-1.68338,0-1.85172.84169-4.37679,2.69341-4.37679.84169,0,1.3467.505,1.3467,1.68338M97.4678,62.04925c-2.69341,0-4.04012,2.86175-4.04012,5.38682,0,1.85172.84169,2.69341,2.35674,2.69341,2.69341,0,4.04012-2.86175,4.04012-5.38682a2.17994,2.17994,0,0,0-2.35674-2.69341M93.091,59.1875h0l-1.01-.16834c-.16834,0-.16834,0-.16834.16834l-1.01,4.54513H87.19918l1.01-4.37679v-.16834c0-.16834,0-.16834-.16834-.16834h-.84169c-.16834,0-.16834,0-.16834.16834l-2.18839,10.437v.16834c0,.16834,0,.16834.16834.16834h.84169c.16834,0,.16834,0,.16834-.16834l1.01-4.88181h3.70344l-1.01,4.88181v.16834c0,.16834,0,.16834.16834.16834h.84169c.16834,0,.16834,0,.16834-.16834Z" transform="translate(0 -12.55783)" style="fill: #00305d"></path>
</svg>
